<svg width="492" height="345" viewBox="0 0 492 345" fill="none" xmlns="http://www.w3.org/2000/svg">
<path d="M129.709 83.5517L111.337 48.8391L290.973 1.87506L315.469 169.312L307.304 201.983L250.755 116.222L107.254 342.875H3.14673L186.866 116.222H250.755L244.023 106.013L129.709 83.5517Z" fill="url(#paint0_radial_45_13)"/>
<path d="M250.755 116.222L244.023 106.013L129.709 83.5517L111.337 48.8391L290.973 1.87506L315.469 169.312L307.304 201.983L250.755 116.222ZM250.755 116.222L107.254 342.875H3.14673L186.866 116.222H250.755Z" stroke="#F7B258" stroke-width="3"/>
<path d="M230.593 342.875H159.147L245.49 175.438L285.709 236.695H371.444L302.039 1.87506H348.99L491.882 342.875H416.353L397.981 297.953H253.048L230.593 342.875Z" fill="#122672"/>
<path d="M230.593 342.875H159.147L245.49 175.438L285.709 236.695H371.444L302.039 1.87506H348.99L491.882 342.875H416.353L397.981 297.953H253.048L230.593 342.875Z" fill="#122672"/>
<defs>
<radialGradient id="paint0_radial_45_13" cx="0" cy="0" r="1" gradientUnits="userSpaceOnUse" gradientTransform="translate(250.147 172.375) rotate(90) scale(170.5 247)">
<stop stop-color="#F7B258"/>
<stop offset="1" stop-color="#F29A27"/>
</radialGradient>
</defs>
</svg>
