<svg width="496" height="343" viewBox="0 0 496 343" fill="none" xmlns="http://www.w3.org/2000/svg">
<path d="M127.611 82.3017L109.239 47.5891L288.875 0.625011L313.371 168.062L305.206 200.733L248.657 114.972L105.156 341.625H1.04889L184.768 114.972H248.657L241.925 104.763L127.611 82.3017Z" fill="url(#paint0_radial_5_9)"/>
<path d="M233.76 341.625H162.313L248.657 174.188L288.875 235.445H374.611L305.206 0.625011H352.156L495.049 341.625H419.52L401.148 296.703H256.214L233.76 341.625Z" fill="#44526E"/>
<path d="M233.76 341.625H162.313L248.657 174.188L288.875 235.445H374.611L305.206 0.625011H352.156L495.049 341.625H419.52L401.148 296.703H256.214L233.76 341.625Z" fill="#44526E"/>
<path d="M248.657 114.972L241.925 104.763L127.611 82.3017L109.239 47.5891L288.875 0.625011L313.371 168.062L305.206 200.733L248.657 114.972ZM248.657 114.972L105.156 341.625H1.04889L184.768 114.972H248.657ZM162.313 341.625H233.76L256.214 296.703H401.148L419.52 341.625H495.049L352.156 0.625011H305.206L374.611 235.445H288.875L248.657 174.188L162.313 341.625Z" stroke="#F7B258"/>
<defs>
<radialGradient id="paint0_radial_5_9" cx="0" cy="0" r="1" gradientUnits="userSpaceOnUse" gradientTransform="translate(248.049 171.125) rotate(90) scale(170.5 247)">
<stop stop-color="#F7B258"/>
<stop offset="1" stop-color="#F29A27"/>
</radialGradient>
</defs>
</svg>
